<?xml version="1.0" encoding="UTF-8"?>
<!DOCTYPE svg PUBLIC "-//W3C//DTD SVG 1.1//EN" "http://www.w3.org/Graphics/SVG/1.1/DTD/svg11.dtd">
<!-- Creator: CorelDRAW -->
<svg xmlns="http://www.w3.org/2000/svg" xml:space="preserve" width="25mm" height="25mm" style="shape-rendering:geometricPrecision; text-rendering:geometricPrecision; image-rendering:optimizeQuality; fill-rule:evenodd; clip-rule:evenodd"
viewBox="0 0 1.22432 1.22432"
 xmlns:xlink="http://www.w3.org/1999/xlink">
 <g id="Layer_x0020_1">
  <metadata id="CorelCorpID_0Corel-Layer"/>
  <g id="_280271384">
   <g>
    <circle id="_281587656" fill="yellow" cx="0.61453" cy="0.605038" r="0.355937"/>
    <path id="_281587584" fill="black" fill-rule="nonzero" d="M0.612155 0.222043l2.44864e-005 0 0 8.8151e-005c0.10775,4.89728e-006 0.205279,0.0436495 0.275825,0.114195 0.0705306,0.0705355 0.11417,0.168045 0.11418,0.275785l8.8151e-005 0 0 4.40755e-005 0 2.44864e-005 -8.8151e-005 0c-4.89728e-006,0.10775 -0.0436495,0.205279 -0.1142,0.275825 -0.0705306,0.0705306 -0.16804,0.11417 -0.275781,0.11418l0 8.8151e-005 -4.89728e-005 0 -1.95891e-005 0 0 -8.8151e-005c-0.107755,-4.89728e-006 -0.205279,-0.0436495 -0.27582,-0.1142 -0.0705306,-0.0705306 -0.11417,-0.16804 -0.114185,-0.275781l-8.8151e-005 0 0 -4.89728e-005 0 -1.95891e-005 8.8151e-005 0c4.89728e-006,-0.107755 0.0436495,-0.205279 0.114195,-0.27582 0.0705355,-0.0705306 0.168045,-0.11417 0.275785,-0.114185l0 -8.8151e-005 4.40755e-005 0zm2.44864e-005 0.0445359l0 8.8151e-005 -2.44864e-005 0 -4.40755e-005 0 0 -8.8151e-005c-0.095306,9.79456e-006 -0.18167,0.0387228 -0.244237,0.101286 -0.0625726,0.0625677 -0.10129,0.148951 -0.101295,0.244271l8.8151e-005 0 0 1.95891e-005 0 4.89728e-005 -8.8151e-005 0c9.79456e-006,0.0953109 0.0387228,0.181674 0.101286,0.244237 0.0625677,0.0625726 0.148951,0.10129 0.244271,0.101295l0 -8.8151e-005 1.95891e-005 0 4.89728e-005 0 0 8.8151e-005c0.0953109,-9.79456e-006 0.18167,-0.0387179 0.244237,-0.101281 0.0625726,-0.0625726 0.10129,-0.148951 0.101295,-0.244276l-8.8151e-005 0 0 -2.44864e-005 0 -4.40755e-005 8.8151e-005 0c-9.79456e-006,-0.095306 -0.0387179,-0.18167 -0.101281,-0.244237 -0.0625726,-0.0625726 -0.148951,-0.10129 -0.244276,-0.101295z"/>
    <path id="_281587512" fill="black" d="M0.762198 0.70371c0.00768383,0.0089963 0.0119445,0.0188545 0.0119445,0.0291927 0,0.0423027 -0.0710644,0.0766082 -0.158691,0.0766082 -0.087627,0 -0.158691,-0.0343055 -0.158691,-0.0766082 0,-0.0103382 0.00426063,-0.0201964 0.0119445,-0.0291927 0.0237812,0.0278263 0.080526,0.0474302 0.146747,0.0474302 0.066221,0 0.122966,-0.0196038 0.146747,-0.0474302z"/>
    <circle id="_281587440" fill="black" cx="0.490181" cy="0.525545" r="0.0659291"/>
    <circle id="_281587368" fill="black" cx="0.722502" cy="0.525545" r="0.0659291"/>
   </g>
  </g>
 </g>
</svg>
