<?xml version="1.0" encoding="UTF-8"?>
<!DOCTYPE svg PUBLIC "-//W3C//DTD SVG 1.1//EN" "http://www.w3.org/Graphics/SVG/1.1/DTD/svg11.dtd">
<!-- Creator: CorelDRAW -->
<svg xmlns="http://www.w3.org/2000/svg" xml:space="preserve" width="25mm" height="25mm" style="shape-rendering:geometricPrecision; text-rendering:geometricPrecision; image-rendering:optimizeQuality; fill-rule:evenodd; clip-rule:evenodd"
viewBox="0 0 1.06553 1.06553"
 xmlns:xlink="http://www.w3.org/1999/xlink">

 <g id="Layer_x0020_1">
  <metadata id="CorelCorpID_0Corel-Layer"/>
  <polygon stroke="black" stroke-width="0.00324773" fill="black" points="0.131584,0.593022 0.125187,0.565476 0.131584,0.537551 0.537551,0.537551 0.537551,0.131584 0.565118,0.126214 0.593022,0.131584 0.593022,0.537551 0.998993,0.537551 1.00304,0.565412 0.998993,0.593022 0.593022,0.593022 0.593022,0.998993 0.566636,1.00379 0.537551,0.998993 0.537551,0.593022 "/>
  <circle stroke="black" stroke-width="0.00324773" fill="black" cx="0.347038" cy="0.344118" r="0.0439861"/>
  <polygon stroke="black" stroke-width="0.00324773" fill="black" points="0.298578,0.86844 0.274783,0.854917 0.262133,0.831995 0.528843,0.565289 0.262133,0.298583 0.277417,0.275576 0.298578,0.262137 0.565285,0.528843 0.831995,0.262133 0.855045,0.27584 0.86844,0.298578 0.60173,0.565289 0.86844,0.831999 0.855923,0.855726 0.831995,0.868445 0.565285,0.601734 "/>
  <circle stroke="black" stroke-width="0.00324773" fill="black" cx="0.567575" cy="0.256911" r="0.0439861"/>
  <circle fill="black" cx="0.565289" cy="0.560246" r="0.302585"/>
  <circle stroke="black" stroke-width="0.00324773" fill="black" cx="0.774987" cy="0.355903" r="0.0439861"/>
  <circle stroke="black" stroke-width="0.00324773" fill="black" cx="0.354109" cy="0.774903" r="0.0439861"/>
  <circle stroke="black" stroke-width="0.00324773" fill="black" cx="0.774987" cy="0.774903" r="0.0439861"/>
  <circle class="fil4" fill="white" cx="0.512012" cy="0.521802" r="0.0407842"/>
 </g>
</svg>
